<svg xmlns="http://www.w3.org/2000/svg" viewBox="0 0 1400 880" font-family="Segoe UI, -apple-system, Arial, sans-serif">
  <defs>
    <linearGradient id="bg2" x1="0" y1="0" x2="0" y2="1">
      <stop offset="0" stop-color="#14181f"/>
      <stop offset="1" stop-color="#0a0d12"/>
    </linearGradient>
    <linearGradient id="card2" x1="0" y1="0" x2="0" y2="1">
      <stop offset="0" stop-color="#1c232d"/>
      <stop offset="1" stop-color="#141a22"/>
    </linearGradient>
    <linearGradient id="chip2" x1="0" y1="0" x2="0" y2="1">
      <stop offset="0" stop-color="#232c38"/>
      <stop offset="1" stop-color="#1a212b"/>
    </linearGradient>
    <filter id="ds2" x="-20%" y="-20%" width="140%" height="140%">
      <feDropShadow dx="0" dy="4" stdDeviation="8" flood-color="#000000" flood-opacity="0.45"/>
    </filter>
    <filter id="dsS2" x="-30%" y="-30%" width="160%" height="160%">
      <feDropShadow dx="0" dy="2" stdDeviation="4" flood-color="#000000" flood-opacity="0.4"/>
    </filter>
    <marker id="a2" viewBox="0 0 10 10" refX="8.5" refY="5" markerWidth="6.5" markerHeight="6.5" orient="auto-start-reverse">
      <path d="M 0 1 L 9 5 L 0 9 z" fill="#9aa4b2"/>
    </marker>
    <marker id="a2g" viewBox="0 0 10 10" refX="8.5" refY="5" markerWidth="6.5" markerHeight="6.5" orient="auto-start-reverse">
      <path d="M 0 1 L 9 5 L 0 9 z" fill="#7fd68b"/>
    </marker>
    <marker id="a2p" viewBox="0 0 10 10" refX="8.5" refY="5" markerWidth="6.5" markerHeight="6.5" orient="auto-start-reverse">
      <path d="M 0 1 L 9 5 L 0 9 z" fill="#c3b1ff"/>
    </marker>
    <marker id="a2b" viewBox="0 0 10 10" refX="8.5" refY="5" markerWidth="6.5" markerHeight="6.5" orient="auto-start-reverse">
      <path d="M 0 1 L 9 5 L 0 9 z" fill="#79b3f5"/>
    </marker>
  </defs>

  <rect width="1400" height="880" rx="18" fill="url(#bg2)"/>
  <rect x="0.5" y="0.5" width="1399" height="879" rx="18" fill="none" stroke="#2a3340"/>

  <!-- Título -->
  <text x="44" y="54" fill="#eef2f7" font-size="26" font-weight="700">0G LockControl — Sistema completo</text>
  <text x="44" y="82" fill="#8792a2" font-size="14">Dispositivo → Red Sigfox RC2 → Nube → App · firmware API · alarma dual movimiento + apertura</text>

  <!-- ================= ZONA 1: DISPOSITIVO ================= -->
  <g filter="url(#ds2)">
    <rect x="44" y="110" width="770" height="600" rx="14" fill="url(#card2)" stroke="#3a4656"/>
  </g>
  <rect x="44" y="110" width="770" height="36" rx="14" fill="#3a4656" opacity="0.35"/>
  <text x="64" y="134" fill="#c7d0dc" font-size="13" font-weight="700" letter-spacing="2">DISPOSITIVO · PCB 2 CAPAS FR4 1.6 mm · GND SÓLIDO</text>

  <!-- Alimentación -->
  <g filter="url(#dsS2)">
    <rect x="68" y="162" width="722" height="100" rx="11" fill="url(#chip2)" stroke="#8a5a1e"/>
  </g>
  <rect x="68" y="162" width="722" height="26" rx="11" fill="#8a5a1e" opacity="0.18"/>
  <text x="84" y="180" fill="#e8b46a" font-size="11.5" font-weight="700" letter-spacing="1.5">ALIMENTACIÓN</text>

  <rect x="86" y="198" width="120" height="50" rx="8" fill="#141a22" stroke="#a06a24"/>
  <text x="146" y="219" fill="#eef2f7" font-size="12.5" font-weight="700" text-anchor="middle">CR2450</text>
  <text x="146" y="236" fill="#c99a55" font-size="10.5" text-anchor="middle">3 V · 620 mAh</text>

  <rect x="236" y="198" width="150" height="50" rx="8" fill="#141a22" stroke="#a06a24"/>
  <text x="311" y="216" fill="#eef2f7" font-size="12" font-weight="700" text-anchor="middle">Cap 470 µF</text>
  <text x="311" y="231" fill="#c99a55" font-size="10" text-anchor="middle">pulso TX · GATE 2</text>
  <text x="311" y="244" fill="#8792a2" font-size="9.5" text-anchor="middle">Vmin ≥ 2.5 V</text>

  <rect x="416" y="198" width="170" height="50" rx="8" fill="#141a22" stroke="#a06a24"/>
  <text x="501" y="216" fill="#eef2f7" font-size="12" font-weight="700" text-anchor="middle">TPS7A02 + bypass 0 Ω</text>
  <text x="501" y="233" fill="#c99a55" font-size="10" text-anchor="middle">config dual · DT-003</text>

  <rect x="616" y="198" width="156" height="50" rx="8" fill="#141a22" stroke="#a06a24"/>
  <text x="694" y="216" fill="#eef2f7" font-size="12" font-weight="700" text-anchor="middle">VDD 3.0 V</text>
  <text x="694" y="233" fill="#c99a55" font-size="10" text-anchor="middle">100nF ×4 + 10 µF</text>

  <line x1="206" y1="223" x2="234" y2="223" stroke="#9aa4b2" stroke-width="1.5" marker-end="url(#a2)"/>
  <line x1="386" y1="223" x2="414" y2="223" stroke="#9aa4b2" stroke-width="1.5" marker-end="url(#a2)"/>
  <line x1="586" y1="223" x2="614" y2="223" stroke="#9aa4b2" stroke-width="1.5" marker-end="url(#a2)"/>

  <!-- Sensores -->
  <g filter="url(#dsS2)">
    <rect x="68" y="286" width="280" height="188" rx="11" fill="url(#chip2)" stroke="#2f6b3a"/>
  </g>
  <rect x="68" y="286" width="280" height="26" rx="11" fill="#2f6b3a" opacity="0.2"/>
  <text x="84" y="304" fill="#7fd68b" font-size="11.5" font-weight="700" letter-spacing="1.5">SENSORES</text>

  <rect x="86" y="322" width="244" height="62" rx="8" fill="#141a22" stroke="#3f8a4c"/>
  <text x="100" y="344" fill="#eef2f7" font-size="12.5" font-weight="700">LIS2DW12</text>
  <text x="100" y="361" fill="#7fd68b" font-size="10.5">acelerómetro · umbral 200 mg</text>
  <text x="100" y="376" fill="#8792a2" font-size="10">I²C1 PA9/PA10 · pull-ups 4.7 kΩ</text>

  <rect x="86" y="396" width="244" height="62" rx="8" fill="#141a22" stroke="#3f8a4c"/>
  <text x="100" y="418" fill="#eef2f7" font-size="12.5" font-weight="700">Reed ∥ DRV5032</text>
  <text x="100" y="435" fill="#7fd68b" font-size="10.5">magnético · dual footprint DT-001</text>
  <text x="100" y="450" fill="#8792a2" font-size="10">imán en marco · debounce 50 ms</text>

  <!-- Módulo -->
  <g filter="url(#dsS2)">
    <rect x="384" y="286" width="406" height="270" rx="12" fill="url(#chip2)" stroke="#4a63c9" stroke-width="1.4"/>
  </g>
  <rect x="384" y="286" width="406" height="30" rx="12" fill="#4a63c9" opacity="0.18"/>
  <text x="404" y="307" fill="#93a8ff" font-size="14.5" font-weight="800">LSM110A · firmware API</text>
  <text x="620" y="307" fill="#8792a2" font-size="10.5">FCC 2AS8LLSM110A</text>

  <text x="404" y="338" fill="#dfe5ec" font-size="12">STM32WLE5 · Cortex-M4 · 256 KB / 64 KB · radio sub-GHz</text>

  <rect x="404" y="352" width="176" height="40" rx="8" fill="#1a2540" stroke="#5a74d9"/>
  <text x="492" y="377" fill="#a9baff" font-size="11" font-weight="700" text-anchor="middle">Sigfox stack SJI</text>

  <rect x="594" y="352" width="176" height="40" rx="8" fill="#14261c" stroke="#3f8a4c"/>
  <text x="682" y="377" fill="#7fd68b" font-size="11" font-weight="700" text-anchor="middle">Drivers I²C + EXTI</text>

  <rect x="404" y="404" width="366" height="40" rx="8" fill="#14261c" stroke="#3f8a4c"/>
  <text x="587" y="429" fill="#7fd68b" font-size="11" font-weight="700" text-anchor="middle">Stop2 ≈ 3 µA · RTC heartbeat 24 h · IWDG 4 s</text>

  <rect x="404" y="456" width="366" height="40" rx="8" fill="#231a40" stroke="#7a5fd0"/>
  <text x="587" y="481" fill="#c3b1ff" font-size="11" font-weight="700" text-anchor="middle">Cooldown 60 s · máx 130 msg/día · payload 12 B v1.0</text>

  <text x="404" y="522" fill="#5d6b7e" font-size="10.5">Stack no se modifica → preserva Sigfox Verified + FCC (DT-004)</text>
  <text x="404" y="540" fill="#5d6b7e" font-size="10.5">TX default +14 dBm (~50 mA) · hasta +21 dBm</text>

  <line x1="348" y1="353" x2="382" y2="353" stroke="#7fd68b" stroke-width="1.6" marker-end="url(#a2g)"/>
  <text x="365" y="345" fill="#7fd68b" font-size="9.5" text-anchor="middle">PA0</text>
  <line x1="348" y1="427" x2="382" y2="427" stroke="#7fd68b" stroke-width="1.6" marker-end="url(#a2g)"/>
  <text x="365" y="419" fill="#7fd68b" font-size="9.5" text-anchor="middle">PA1</text>

  <!-- Debug -->
  <g filter="url(#dsS2)">
    <rect x="68" y="498" width="280" height="76" rx="11" fill="url(#chip2)" stroke="#4a5566" stroke-dasharray="5 4"/>
  </g>
  <text x="84" y="522" fill="#8792a2" font-size="11" font-weight="700" letter-spacing="1.5">DEBUG · no poblar en prod</text>
  <text x="84" y="542" fill="#6b7686" font-size="10.5">SWD PA13/14 · UART PB6/7 · LED PA2</text>
  <text x="84" y="558" fill="#6b7686" font-size="10.5">NRST 100 nF · BOOT0 flotante</text>

  <!-- Cadena RF -->
  <g filter="url(#dsS2)">
    <rect x="68" y="598" width="722" height="90" rx="11" fill="url(#chip2)" stroke="#7a5fd0" stroke-width="1.3"/>
  </g>
  <rect x="68" y="598" width="722" height="26" rx="11" fill="#7a5fd0" opacity="0.18"/>
  <text x="84" y="616" fill="#c3b1ff" font-size="11.5" font-weight="700" letter-spacing="1.5">CADENA RF · CERTIFICADA (User Manual FCC 5937666)</text>
  <text x="84" y="642" fill="#dfe5ec" font-size="11.5">Pin 33 RFOUT → matching 0 Ω + 2.2 pF + DNI → CPWG 50 Ω (1.0 mm / gap 0.15 mm)</text>
  <text x="84" y="662" fill="#c3b1ff" font-size="11">Antena EVB_LSM ANT serpentín 1.9 dBi · copia exacta (Gerber bajo NDA) · ref 50×80 mm · εr 4.3</text>
  <text x="84" y="679" fill="#5d6b7e" font-size="10">keepout total · via stitching · separación ≥ 20 cm a personas</text>

  <line x1="587" y1="556" x2="587" y2="596" stroke="#c3b1ff" stroke-width="1.6" marker-end="url(#a2p)"/>

  <!-- Antena + ondas -->
  <g stroke="#c3b1ff" stroke-width="2.4" fill="none">
    <path d="M 812 636 h 24 v -16 h -16 v 32 h 16"/>
  </g>
  <g stroke="#c3b1ff" fill="none" stroke-width="2">
    <path d="M 858 636 q 13 -20 0 -40" opacity="0.9"/>
    <path d="M 876 646 q 20 -30 0 -60" opacity="0.55"/>
    <path d="M 894 656 q 27 -40 0 -80" opacity="0.3"/>
  </g>

  <!-- ================= ZONA 2: RED ================= -->
  <g filter="url(#ds2)">
    <rect x="938" y="560" width="418" height="150" rx="14" fill="url(#card2)" stroke="#3a4656"/>
  </g>
  <rect x="938" y="560" width="418" height="36" rx="14" fill="#3a4656" opacity="0.35"/>
  <text x="958" y="584" fill="#c7d0dc" font-size="13" font-weight="700" letter-spacing="2">RED SIGFOX RC2</text>
  <text x="958" y="616" fill="#dfe5ec" font-size="12">UL 902.1375–904.6625 MHz · DBPSK 600 bps</text>
  <text x="958" y="636" fill="#dfe5ec" font-size="12">DL 905.104–905.296 MHz · 2GFSK</text>
  <text x="958" y="656" fill="#8792a2" font-size="11">12 bytes/msg · ≤ 140 msg/día · sin gateway propio</text>
  <text x="958" y="674" fill="#8792a2" font-size="11">Downlink preparado, no en MVP (DT-006)</text>
  <line x1="912" y1="632" x2="936" y2="632" stroke="#c3b1ff" stroke-width="1.8" marker-end="url(#a2p)"/>

  <!-- ================= ZONA 3: NUBE / APP ================= -->
  <g filter="url(#ds2)">
    <rect x="938" y="110" width="418" height="422" rx="14" fill="url(#card2)" stroke="#3a4656"/>
  </g>
  <rect x="938" y="110" width="418" height="36" rx="14" fill="#3a4656" opacity="0.35"/>
  <text x="958" y="134" fill="#c7d0dc" font-size="13" font-weight="700" letter-spacing="2">NUBE · BACKEND · APP</text>

  <g filter="url(#dsS2)">
    <rect x="962" y="162" width="370" height="88" rx="10" fill="url(#chip2)" stroke="#2d5f9e"/>
  </g>
  <text x="980" y="188" fill="#eef2f7" font-size="13" font-weight="700">Sigfox Cloud</text>
  <text x="980" y="208" fill="#79b3f5" font-size="11">Callback UPLINK → HTTP POST JSON</text>
  <text x="980" y="226" fill="#8792a2" font-size="10.5">{device, time, data hex24, seqNumber, lqi}</text>

  <g filter="url(#dsS2)">
    <rect x="962" y="272" width="370" height="100" rx="10" fill="url(#chip2)" stroke="#2d5f9e"/>
  </g>
  <text x="980" y="298" fill="#eef2f7" font-size="13" font-weight="700">Backend / API</text>
  <text x="980" y="318" fill="#79b3f5" font-size="11">payload_parser.py · contrato congelado v1.0</text>
  <text x="980" y="336" fill="#8792a2" font-size="10.5">tipo · fuente · mg · eje · magnético · batería%</text>
  <text x="980" y="352" fill="#8792a2" font-size="10.5">temp (+40) · conteo — uint16 big-endian</text>

  <g filter="url(#dsS2)">
    <rect x="962" y="394" width="370" height="88" rx="10" fill="url(#chip2)" stroke="#2d5f9e"/>
  </g>
  <text x="980" y="420" fill="#eef2f7" font-size="13" font-weight="700">App móvil</text>
  <text x="980" y="440" fill="#79b3f5" font-size="11">estado · histórico · push en alarma (tipo 0x01)</text>
  <text x="980" y="458" fill="#8792a2" font-size="10.5">arranca S5 con payload validado en backend</text>

  <line x1="1147" y1="250" x2="1147" y2="270" stroke="#79b3f5" stroke-width="1.8" marker-end="url(#a2b)"/>
  <line x1="1147" y1="372" x2="1147" y2="392" stroke="#79b3f5" stroke-width="1.8" marker-end="url(#a2b)"/>
  <line x1="1147" y1="558" x2="1147" y2="484" stroke="#79b3f5" stroke-width="1.8" marker-end="url(#a2b)"/>
  <text x="1160" y="526" fill="#8792a2" font-size="10.5">uplink</text>

  <!-- ================= CICLO ================= -->
  <g filter="url(#ds2)">
    <rect x="44" y="738" width="1312" height="106" rx="14" fill="url(#card2)" stroke="#3a4656"/>
  </g>
  <rect x="44" y="738" width="1312" height="34" rx="14" fill="#3a4656" opacity="0.35"/>
  <text x="64" y="761" fill="#c7d0dc" font-size="13" font-weight="700" letter-spacing="2">CICLO EVENT-DRIVEN</text>

  <g filter="url(#dsS2)"><rect x="64" y="786" width="190" height="40" rx="20" fill="#14261c" stroke="#3f8a4c"/></g>
  <text x="159" y="811" fill="#7fd68b" font-size="12.5" font-weight="700" text-anchor="middle">Stop2 · ~3 µA</text>

  <g filter="url(#dsS2)"><rect x="296" y="786" width="200" height="40" rx="20" fill="#1a2540" stroke="#5a74d9"/></g>
  <text x="396" y="811" fill="#a9baff" font-size="12.5" font-weight="700" text-anchor="middle">Wake por INT (HW)</text>

  <g filter="url(#dsS2)"><rect x="538" y="786" width="210" height="40" rx="20" fill="#1a2540" stroke="#5a74d9"/></g>
  <text x="643" y="811" fill="#a9baff" font-size="12.5" font-weight="700" text-anchor="middle">Sensor + payload 12 B</text>

  <g filter="url(#dsS2)"><rect x="790" y="786" width="250" height="40" rx="20" fill="#231a40" stroke="#7a5fd0"/></g>
  <text x="915" y="811" fill="#c3b1ff" font-size="12.5" font-weight="700" text-anchor="middle">TX +14 dBm · ~50 mA · ~2 s</text>

  <g filter="url(#dsS2)"><rect x="1082" y="786" width="180" height="40" rx="20" fill="#14261c" stroke="#3f8a4c"/></g>
  <text x="1172" y="811" fill="#7fd68b" font-size="12.5" font-weight="700" text-anchor="middle">Sleep → Stop2</text>

  <line x1="254" y1="806" x2="294" y2="806" stroke="#9aa4b2" stroke-width="1.6" marker-end="url(#a2)"/>
  <line x1="496" y1="806" x2="536" y2="806" stroke="#9aa4b2" stroke-width="1.6" marker-end="url(#a2)"/>
  <line x1="748" y1="806" x2="788" y2="806" stroke="#9aa4b2" stroke-width="1.6" marker-end="url(#a2)"/>
  <line x1="1040" y1="806" x2="1080" y2="806" stroke="#9aa4b2" stroke-width="1.6" marker-end="url(#a2)"/>
  <text x="1290" y="811" fill="#6b7686" font-size="11">⟲ 24 h</text>
</svg>
